<svg font-family="sans-serif" viewBox="0 0 753 367" xmlns:xlink="http://www.w3.org/1999/xlink" text-decoration="none" font-style="normal" width="753px" xmlns="http://www.w3.org/2000/svg" font-size="15" version="1.1" font-weight="normal" height="367px"><title>Datos históricos de temperatura en 2022 en Bogotá</title><defs><clipPath id="plot-sample-bounds-2"><rect y="0" x="75.8" height="345" width="601.3"></rect></clipPath><clipPath id="plot-sample-bounds-scaled-2"><rect y="0" x="758.3" height="3450" width="6013.5"></rect></clipPath></defs><g transform="scale(0.1)"><path fill-opacity="0.188" stroke="none" d="M767,2981l16,3l17,7l16,0l17,2l16,1l17,0l16,3l17,10l16,-2l17,4l16,-1l17,1l16,-6l17,3l16,-3l17,-6l16,-5l17,-6l16,-2l17,0l16,-4l17,3l16,-4l17,-7l17,3l16,1l17,-8l16,-4l17,-6l16,4l17,6l16,2l17,-6l16,-4l17,0l16,-3l17,-3l16,-9l17,-11l16,-7l17,-6l16,-13l17,-10l16,-4l17,-6l16,-6l17,-8l17,-8l16,-4l17,-6l16,-9l17,-5l16,-11l17,-2l16,-1l17,-5l16,-5l17,-2l16,-8l17,-6l16,-3l17,-5l16,1l17,-3l16,2l17,-8l16,2l17,-2l16,-3l17,-1l16,0l17,-4l17,3l16,-4l17,-2l16,-3l17,0l16,-2l17,-3l16,-5l17,-7l16,-5l17,0l16,-4l17,-8l16,-3l17,-6l16,-7l17,-8l16,0l17,-1l16,-5l17,-9l16,-14l17,-9l16,-6l17,-8l17,-14l16,-6l17,-8l16,-9l17,-9l16,-7l17,-5l16,-5l17,-6l16,-3l17,-6l16,-3l17,-6l16,-3l17,2l16,-1l17,-8l16,3l17,-1l16,2l17,-3l16,-1l17,4l17,-4l16,-3l17,2l16,-2l17,1l16,3l17,-1l16,4l17,2l16,0l17,1l16,3l17,3l16,9l17,2l16,1l17,-3l16,5l17,0l16,1l17,9l16,3l17,0l16,5l17,4l17,-4l16,4l17,-5l16,0l17,1l16,-5l17,1l16,2l17,-4l16,3l17,4l16,-2l17,1l16,7l17,-3l16,5l17,2l16,5l17,3l16,-5l17,0l16,6l17,5l16,-3l17,2l17,2l16,0l17,0l16,4l17,-3l16,1l17,6l16,0l17,2l16,6l17,6l16,1l17,-1l16,5l17,2l16,3l17,1l16,5l17,4l16,-4l17,6l16,-1l17,5l17,1l16,0l17,2l16,3l17,0l16,1l17,6l16,2l17,1l16,0l17,3l16,-1l17,3l16,2l17,-3l16,0l17,9l16,0l17,-6l16,6l17,6l16,-3l17,3l16,0l17,-1l17,-3l16,1l17,11l16,2l17,0l16,2l17,6l16,6l17,6l16,3l17,2l16,0l17,-3l16,0l17,1l16,7l17,0l16,0l17,0l16,3l17,5l16,3l17,-3l16,1l17,11l17,2l16,2l17,7l16,5l17,6l16,3l17,4l16,-2l17,-8l16,-3l17,3l16,-3l17,-6l16,-5l17,-4l16,-1l17,2l16,6l17,-1l16,0l17,0l16,-9l17,-2l17,-2l16,0l17,-3l16,-1l17,-3l16,-5l17,-4l16,-12l17,-6l16,-3l17,-4l16,-5l17,-9l16,0l17,1l16,-1l17,4l16,0l17,-3l16,-2l17,1l16,0l17,-4l16,-2l17,-6l17,-3l16,3l17,0l16,4l17,1l16,2l17,5l16,0l17,0l16,0l17,1l16,5l17,0l16,3l17,1l16,4l17,2l16,0l17,3l16,2l17,-4l16,1l17,-4l16,-2l17,6l17,3l16,0l17,0l16,7l17,6l16,6l17,-1l16,2l17,1l16,-1l17,2l16,0l17,4l16,6l17,4l16,9l17,7l16,10l17,15l16,3l17,6l16,3l17,4l17,7l16,7l17,4l16,6l17,12l16,6l17,11l16,7l17,15l16,1l17,11l16,10l17,8l16,9l17,6l16,4l17,9l16,4l17,8l16,7l17,0l16,2l17,8l16,3l0,-699l-16,-4l-17,0l-16,-1l-17,2l-16,-2l-17,3l-16,-1l-17,0l-16,0l-17,0l-16,0l-17,-3l-16,-4l-17,-3l-16,0l-17,-5l-16,-4l-17,-1l-16,-3l-17,-3l-16,-3l-17,-3l-16,0l-17,0l-17,-5l-16,0l-17,-1l-16,-1l-17,-1l-16,2l-17,1l-16,3l-17,-3l-16,0l-17,-2l-16,0l-17,0l-16,0l-17,0l-16,0l-17,0l-16,0l-17,2l-16,1l-17,0l-16,0l-17,0l-17,1l-16,-2l-17,0l-16,0l-17,0l-16,0l-17,0l-16,0l-17,3l-16,0l-17,0l-16,3l-17,0l-16,-1l-17,0l-16,2l-17,2l-16,0l-17,0l-16,0l-17,0l-16,-1l-17,0l-16,0l-17,1l-17,3l-16,0l-17,2l-16,0l-17,0l-16,3l-17,3l-16,2l-17,1l-16,1l-17,2l-16,0l-17,3l-16,1l-17,2l-16,3l-17,0l-16,2l-17,-1l-16,1l-17,0l-16,-2l-17,0l-16,2l-17,0l-17,0l-16,3l-17,1l-16,0l-17,3l-16,2l-17,-3l-16,2l-17,0l-16,0l-17,3l-16,-1l-17,-2l-16,-3l-17,0l-16,-1l-17,-1l-16,0l-17,-3l-16,-1l-17,-1l-16,-3l-17,0l-17,0l-16,0l-17,-1l-16,0l-17,2l-16,2l-17,-2l-16,0l-17,-1l-16,0l-17,0l-16,0l-17,-4l-16,-3l-17,0l-16,-3l-17,0l-16,1l-17,-3l-16,0l-17,2l-16,0l-17,1l-16,0l-17,1l-17,3l-16,0l-17,0l-16,0l-17,0l-16,0l-17,-1l-16,0l-17,1l-16,0l-17,0l-16,0l-17,0l-16,0l-17,-1l-16,-2l-17,1l-16,0l-17,1l-16,0l-17,0l-16,0l-17,0l-16,-1l-17,0l-17,1l-16,-3l-17,0l-16,-1l-17,0l-16,-4l-17,-3l-16,0l-17,-2l-16,0l-17,0l-16,0l-17,0l-16,0l-17,0l-16,0l-17,-3l-16,0l-17,0l-16,-1l-17,1l-16,0l-17,-2l-17,0l-16,0l-17,0l-16,0l-17,0l-16,-5l-17,0l-16,-2l-17,-2l-16,-3l-17,-2l-16,-2l-17,0l-16,1l-17,-2l-16,-3l-17,-1l-16,-3l-17,-3l-16,0l-17,-3l-16,-2l-17,-3l-16,-2l-17,-2l-17,-3l-16,-2l-17,0l-16,-3l-17,-2l-16,-3l-17,-2l-16,-2l-17,-3l-16,-2l-17,-3l-16,0l-17,-2l-16,-1l-17,-1l-16,0l-17,-1l-16,-1l-17,-3l-16,-1l-17,-2l-16,2l-17,0l-16,0l-17,0l-17,-2l-16,0l-17,-1l-16,0l-17,1l-16,-1l-17,0l-16,0l-17,-2l-16,-2l-17,0l-16,1l-17,2l-16,-1l-17,0l-16,3l-17,0l-16,0l-17,0l-16,2l-17,0l-16,0l-17,0l-17,3l-16,2l-17,3l-16,2l-17,-1l-16,1l-17,1l-16,1l-17,0l-16,0l-17,2l-16,1l-17,3l-16,-1l-17,5l-16,3l-17,1l-16,1l-17,3l-16,1l-17,1l-16,1l-17,3l-16,0l-17,3l-17,3l-16,2l-17,0l-16,1l-17,3l-16,3l-17,-1l-16,0l-17,1l-16,2l-17,2l-16,0l-17,2l-16,1l-17,1l-16,2l-17,2l-16,2l-17,-1l-16,0l-17,-2l-16,-1l-17,3l-16,2l-17,0l-17,0l-16,-3l-17,2l-16,1l-17,0l-16,3l-17,0l-16,0l-17,1l-16,4l-17,0l-16,2l-17,1l-16,4l-17,-1l-16,-2l-17,0l-16,4l-17,0l-16,2l-17,0l-16,2l-17,0l-17,0l-16,0l-17,3l-16,0l-17,2l-16,-2l-17,1l-16,1l-17,4l-16,6l-17,-1l-16,1l-17,4l-16,0l-17,3l-16,2l-17,3l-16,0l-17,0l-16,-1l-17,2l-16,-3l-17,0l-16,-1Z" fill="#4646b9" data-darkreader-inline-fill="" data-darkreader-inline-stroke="" style="--darkreader-inline-fill: #615c76; --darkreader-inline-stroke: none;"></path><path fill-opacity="0.188" stroke="none" d="M767,2772l16,1l17,5l16,5l17,3l16,1l17,1l16,6l17,3l16,3l17,1l16,0l17,1l16,3l17,3l16,0l17,-3l16,-4l17,-4l16,-2l17,-10l16,-5l17,-2l16,-4l17,-3l17,-2l16,-2l17,-4l16,-6l17,-3l16,-1l17,0l16,-3l17,-4l16,-6l17,1l16,-5l17,-4l16,-9l17,-7l16,-8l17,-9l16,-8l17,-9l16,-9l17,-9l16,-9l17,-5l17,-2l16,-6l17,-2l16,-2l17,-2l16,-3l17,0l16,-4l17,-4l16,-5l17,-1l16,-4l17,-6l16,-2l17,-6l16,0l17,-1l16,0l17,-8l16,2l17,-3l16,-1l17,-2l16,-3l17,0l17,-1l16,-2l17,0l16,-1l17,1l16,-4l17,-7l16,-4l17,-6l16,-5l17,-1l16,-5l17,-8l16,-2l17,-4l16,-3l17,-7l16,-5l17,-3l16,-5l17,-2l16,-6l17,-6l16,-5l17,-5l17,-8l16,-2l17,-5l16,-5l17,-2l16,-5l17,-2l16,-3l17,-5l16,-2l17,-2l16,-3l17,-3l16,0l17,-1l16,-2l17,-6l16,3l17,0l16,1l17,2l16,0l17,1l17,0l16,0l17,2l16,-2l17,0l16,2l17,3l16,0l17,0l16,0l17,-2l16,3l17,1l16,5l17,1l16,-1l17,1l16,4l17,-2l16,0l17,3l16,0l17,4l16,2l17,3l17,-3l16,3l17,-2l16,0l17,-2l16,0l17,1l16,0l17,-2l16,4l17,2l16,-1l17,0l16,2l17,3l16,4l17,5l16,0l17,1l16,-3l17,2l16,7l17,1l16,0l17,2l17,3l16,3l17,4l16,3l17,0l16,2l17,4l16,3l17,3l16,3l17,2l16,3l17,1l16,3l17,3l16,1l17,-1l16,3l17,0l16,0l17,1l16,-1l17,0l17,3l16,-2l17,2l16,0l17,-3l16,1l17,2l16,1l17,0l16,0l17,-1l16,-1l17,3l16,0l17,-3l16,1l17,1l16,1l17,1l16,0l17,4l16,0l17,-1l16,0l17,2l17,-1l16,0l17,2l16,0l17,0l16,0l17,1l16,4l17,3l16,3l17,3l16,1l17,0l16,1l17,3l16,3l17,3l16,2l17,0l16,0l17,5l16,1l17,1l16,2l17,9l17,4l16,3l17,1l16,4l17,4l16,4l17,2l16,3l17,5l16,1l17,3l16,3l17,-3l16,-3l17,0l16,0l17,0l16,2l17,1l16,-1l17,0l16,-2l17,-5l17,-2l16,1l17,0l16,-3l17,-2l16,-5l17,-5l16,-8l17,-6l16,-4l17,-1l16,-2l17,-4l16,-6l17,-2l16,-3l17,-1l16,-3l17,0l16,-2l17,0l16,0l17,-4l16,-2l17,-3l17,-3l16,-3l17,0l16,-4l17,-1l16,5l17,4l16,-2l17,2l16,-3l17,0l16,5l17,2l16,0l17,1l16,-3l17,-1l16,-2l17,3l16,1l17,0l16,3l17,-2l16,3l17,0l17,-1l16,0l17,2l16,3l17,7l16,3l17,0l16,3l17,3l16,3l17,4l16,-2l17,1l16,5l17,5l16,6l17,5l16,3l17,9l16,4l17,3l16,6l17,4l17,7l16,4l17,6l16,6l17,4l16,8l17,7l16,9l17,5l16,7l17,6l16,9l17,4l16,7l17,6l16,10l17,8l16,2l17,5l16,5l17,2l16,2l17,3l16,9l0,-347l-16,-5l-17,-2l-16,-2l-17,3l-16,-2l-17,0l-16,-2l-17,0l-16,-1l-17,-4l-16,-3l-17,-3l-16,-5l-17,-8l-16,0l-17,-4l-16,-9l-17,-3l-16,-4l-17,-2l-16,-5l-17,-3l-16,-1l-17,0l-17,-4l-16,-1l-17,-3l-16,0l-17,-3l-16,-3l-17,0l-16,-4l-17,0l-16,-1l-17,-3l-16,-1l-17,-2l-16,-1l-17,-2l-16,0l-17,0l-16,-3l-17,0l-16,-1l-17,2l-16,-1l-17,0l-17,2l-16,0l-17,-2l-16,0l-17,-1l-16,-2l-17,0l-16,0l-17,1l-16,0l-17,3l-16,0l-17,2l-16,0l-17,0l-16,2l-17,0l-16,1l-17,-1l-16,1l-17,2l-16,1l-17,1l-16,3l-17,0l-17,5l-16,0l-17,0l-16,0l-17,2l-16,3l-17,2l-16,0l-17,2l-16,0l-17,2l-16,3l-17,1l-16,0l-17,0l-16,2l-17,2l-16,3l-17,0l-16,1l-17,0l-16,0l-17,0l-16,0l-17,1l-17,0l-16,3l-17,0l-16,0l-17,0l-16,1l-17,-1l-16,0l-17,0l-16,0l-17,2l-16,-1l-17,-1l-16,0l-17,0l-16,0l-17,0l-16,0l-17,-2l-16,0l-17,0l-16,-1l-17,-2l-17,-1l-16,0l-17,-1l-16,0l-17,0l-16,1l-17,0l-16,0l-17,0l-16,-2l-17,0l-16,0l-17,-3l-16,-2l-17,0l-16,0l-17,0l-16,0l-17,-2l-16,-1l-17,0l-16,-1l-17,0l-16,0l-17,0l-17,-1l-16,1l-17,0l-16,0l-17,-1l-16,0l-17,-2l-16,0l-17,1l-16,0l-17,0l-16,0l-17,0l-16,0l-17,-1l-16,0l-17,0l-16,0l-17,0l-16,-1l-17,0l-16,0l-17,0l-16,0l-17,-2l-17,1l-16,-1l-17,0l-16,0l-17,-2l-16,-1l-17,-1l-16,0l-17,-3l-16,-2l-17,0l-16,0l-17,-1l-16,-2l-17,-1l-16,-1l-17,-1l-16,0l-17,-2l-16,-2l-17,0l-16,0l-17,-2l-17,-1l-16,0l-17,0l-16,-2l-17,-3l-16,-2l-17,0l-16,-2l-17,-3l-16,-1l-17,-3l-16,-3l-17,-2l-16,0l-17,-1l-16,-3l-17,0l-16,-2l-17,-2l-16,-3l-17,-2l-16,-1l-17,-2l-16,-2l-17,-1l-17,-3l-16,-1l-17,-1l-16,-2l-17,-3l-16,-1l-17,-2l-16,-1l-17,-2l-16,-2l-17,0l-16,0l-17,-3l-16,-2l-17,0l-16,0l-17,0l-16,0l-17,0l-16,-1l-17,0l-16,0l-17,-2l-16,0l-17,0l-17,0l-16,0l-17,0l-16,0l-17,0l-16,0l-17,0l-16,0l-17,0l-16,0l-17,-2l-16,1l-17,0l-16,0l-17,0l-16,2l-17,0l-16,2l-17,-1l-16,3l-17,2l-16,3l-17,1l-17,2l-16,1l-17,1l-16,2l-17,0l-16,1l-17,2l-16,0l-17,0l-16,2l-17,0l-16,0l-17,3l-16,2l-17,3l-16,0l-17,0l-16,2l-17,4l-16,2l-17,1l-16,0l-17,1l-16,3l-17,1l-17,2l-16,0l-17,-2l-16,0l-17,-1l-16,1l-17,2l-16,1l-17,2l-16,1l-17,4l-16,5l-17,3l-16,3l-17,1l-16,1l-17,3l-16,4l-17,-3l-16,1l-17,-2l-16,-1l-17,4l-16,1l-17,0l-17,0l-16,2l-17,5l-16,5l-17,3l-16,4l-17,0l-16,6l-17,2l-16,7l-17,4l-16,3l-17,0l-16,6l-17,2l-16,2l-17,1l-16,4l-17,-1l-16,4l-17,4l-16,2l-17,0l-17,2l-16,3l-17,1l-16,2l-17,4l-16,4l-17,2l-16,5l-17,5l-16,5l-17,-3l-16,0l-17,3l-16,0l-17,5l-16,-1l-17,3l-16,-2l-17,-1l-16,-3l-17,3l-16,-7l-17,-1l-16,-1Z" fill="#4646b9" data-darkreader-inline-fill="" data-darkreader-inline-stroke="" style="--darkreader-inline-fill: #615c76; --darkreader-inline-stroke: none;"></path><g clip-path="url(#plot-sample-bounds-scaled-2)"><path stroke-width="20" stroke="#4646b9" d="M767,2614l16,0l17,4l16,4l17,0l16,2l17,0l16,2l17,0l16,2l17,0l16,0l17,-1l16,0l17,3l16,-4l17,-4l16,-4l17,-4l16,0l17,-4l16,-2l17,-2l16,-1l17,-3l17,-1l16,-2l17,-4l16,-4l17,-1l16,-2l17,0l16,0l17,-3l16,-4l17,-1l16,-4l17,-4l16,-6l17,-5l16,-7l17,-4l16,-7l17,-5l16,-6l17,-6l16,-4l17,-3l17,-2l16,-2l17,-4l16,-2l17,-1l16,-3l17,-1l16,-3l17,-3l16,-3l17,-2l16,-5l17,-5l16,-3l17,-4l16,-1l17,-1l16,-2l17,-3l16,-1l17,0l16,-1l17,-1l16,-2l17,-1l17,-1l16,-1l17,-1l16,-1l17,0l16,-2l17,-5l16,-2l17,-5l16,-3l17,-2l16,-3l17,-4l16,-2l17,-3l16,-2l17,-3l16,-2l17,-2l16,-3l17,-1l16,-5l17,-4l16,-4l17,-4l17,-5l16,-3l17,-3l16,-4l17,-1l16,-4l17,-1l16,-3l17,-3l16,0l17,-2l16,-3l17,0l16,0l17,0l16,-1l17,-3l16,0l17,-1l16,1l17,0l16,0l17,0l17,-1l16,0l17,0l16,0l17,-1l16,1l17,2l16,1l17,1l16,0l17,0l16,2l17,2l16,3l17,2l16,0l17,1l16,2l17,0l16,1l17,3l16,2l17,3l16,2l17,2l17,1l16,2l17,0l16,1l17,1l16,1l17,2l16,1l17,-1l16,3l17,2l16,0l17,0l16,2l17,3l16,2l17,2l16,3l17,0l16,0l17,2l16,3l17,3l16,0l17,0l17,3l16,0l17,2l16,2l17,0l16,0l17,3l16,1l17,1l16,2l17,3l16,1l17,1l16,2l17,3l16,0l17,3l16,2l17,3l16,0l17,0l16,1l17,1l17,2l16,0l17,0l16,0l17,0l16,1l17,1l16,1l17,0l16,0l17,2l16,-1l17,1l16,1l17,-2l16,1l17,2l16,1l17,0l16,0l17,2l16,0l17,0l16,0l17,0l17,-1l16,-1l17,1l16,1l17,0l16,1l17,3l16,2l17,2l16,3l17,1l16,1l17,2l16,0l17,1l16,3l17,0l16,1l17,1l16,1l17,2l16,-1l17,1l16,1l17,4l17,3l16,2l17,2l16,3l17,2l16,1l17,2l16,3l17,0l16,1l17,1l16,1l17,-3l16,0l17,0l16,-1l17,1l16,0l17,-1l16,-1l17,-1l16,-3l17,-1l17,-1l16,-1l17,-1l16,-1l17,-1l16,-3l17,-1l16,-6l17,-3l16,-3l17,-2l16,-2l17,-3l16,-2l17,-2l16,-2l17,-1l16,-2l17,-2l16,-3l17,0l16,-1l17,-2l16,-2l17,-5l17,-1l16,-1l17,0l16,0l17,-2l16,2l17,2l16,0l17,0l16,-2l17,0l16,1l17,0l16,-1l17,0l16,0l17,-1l16,-1l17,2l16,1l17,-1l16,0l17,1l16,1l17,0l17,0l16,0l17,0l16,2l17,3l16,2l17,0l16,2l17,1l16,2l17,3l16,1l17,2l16,2l17,3l16,4l17,4l16,3l17,7l16,3l17,3l16,2l17,5l17,5l16,2l17,5l16,5l17,4l16,5l17,5l16,7l17,7l16,2l17,7l16,7l17,5l16,5l17,3l16,5l17,3l16,3l17,2l16,3l17,0l16,2l17,4l16,5" fill="none" stroke-opacity="0.3764705882352941" data-darkreader-inline-stroke="" style="--darkreader-inline-stroke: #c3c6ca;"></path></g><path fill-opacity="0.188" stroke="none" d="M767,1685l16,0l17,-2l16,0l17,-1l16,0l17,-2l16,0l17,-3l16,-2l17,2l16,0l17,-2l16,0l17,0l16,0l17,0l16,2l17,2l16,-2l17,0l16,2l17,1l16,0l17,-1l17,3l16,0l17,1l16,3l17,-4l16,-2l17,2l16,1l17,2l16,1l17,1l16,2l17,0l16,3l17,2l16,2l17,-2l16,2l17,0l16,1l17,0l16,2l17,0l17,0l16,3l17,-2l16,-3l17,0l16,-1l17,1l16,3l17,2l16,1l17,0l16,0l17,3l16,1l17,3l16,0l17,2l16,-2l17,0l16,0l17,6l16,1l17,3l16,3l17,0l17,0l16,3l17,3l16,1l17,0l16,1l17,2l16,-3l17,4l16,0l17,0l16,0l17,3l16,-1l17,0l16,3l17,1l16,1l17,0l16,0l17,-2l16,-2l17,-1l16,0l17,-2l17,-1l16,-4l17,-2l16,-3l17,-1l16,1l17,0l16,0l17,0l16,0l17,2l16,0l17,0l16,1l17,-1l16,0l17,1l16,2l17,-5l16,0l17,-3l16,2l17,0l17,-2l16,3l17,0l16,6l17,1l16,2l17,1l16,0l17,2l16,1l17,2l16,0l17,1l16,0l17,1l16,2l17,0l16,0l17,0l16,1l17,3l16,-1l17,2l16,0l17,0l17,2l16,4l17,3l16,1l17,-2l16,-2l17,2l16,-2l17,2l16,-3l17,1l16,0l17,-3l16,3l17,0l16,2l17,0l16,1l17,1l16,2l17,0l16,-2l17,0l16,2l17,3l17,1l16,-1l17,0l16,-3l17,3l16,-2l17,3l16,0l17,1l16,2l17,3l16,3l17,1l16,0l17,0l16,3l17,1l16,3l17,3l16,-1l17,0l16,0l17,1l17,0l16,0l17,0l16,0l17,1l16,0l17,0l16,-2l17,-3l16,-2l17,2l16,1l17,-1l16,3l17,0l16,-2l17,-1l16,0l17,-3l16,0l17,0l16,0l17,-2l16,-2l17,-2l17,-3l16,2l17,-3l16,3l17,0l16,-2l17,-1l16,-2l17,5l16,1l17,0l16,2l17,0l16,0l17,1l16,0l17,-3l16,-1l17,1l16,-3l17,0l16,0l17,-1l16,-2l17,0l17,-1l16,-1l17,0l16,0l17,0l16,-3l17,-2l16,-1l17,0l16,-1l17,-5l16,-1l17,0l16,-2l17,-4l16,-3l17,-1l16,0l17,-1l16,-2l17,0l16,3l17,0l17,-1l16,-2l17,0l16,3l17,-3l16,2l17,0l16,0l17,-2l16,3l17,-4l16,0l17,0l16,4l17,0l16,-3l17,3l16,1l17,0l16,3l17,-1l16,0l17,0l16,0l17,0l17,-2l16,-1l17,1l16,0l17,-1l16,-1l17,0l16,0l17,-2l16,-1l17,1l16,0l17,2l16,1l17,0l16,-4l17,1l16,2l17,-3l16,-2l17,0l16,-1l17,-2l16,-4l17,2l17,-3l16,-2l17,0l16,2l17,1l16,0l17,0l16,2l17,0l16,0l17,-2l16,2l17,-2l16,-1l17,-2l16,-1l17,0l16,-2l17,-2l16,-3l17,0l16,1l17,2l17,0l16,0l17,-2l16,0l17,2l16,-3l17,-2l16,-1l17,-3l16,0l17,-1l16,-3l17,-4l16,-2l17,0l16,0l17,-3l16,-1l17,-2l16,-2l17,0l16,-3l17,-2l16,-1l0,-321l-16,1l-17,5l-16,1l-17,-1l-16,0l-17,1l-16,3l-17,3l-16,1l-17,3l-16,3l-17,1l-16,4l-17,5l-16,-2l-17,3l-16,3l-17,0l-16,0l-17,4l-16,3l-17,2l-16,-2l-17,2l-17,0l-16,-2l-17,0l-16,3l-17,0l-16,3l-17,1l-16,4l-17,2l-16,1l-17,2l-16,1l-17,2l-16,1l-17,3l-16,0l-17,1l-16,-3l-17,2l-16,-2l-17,-1l-16,0l-17,1l-17,-2l-16,1l-17,1l-16,0l-17,-1l-16,1l-17,0l-16,-1l-17,0l-16,0l-17,0l-16,0l-17,0l-16,3l-17,1l-16,-3l-17,0l-16,-1l-17,1l-16,0l-17,0l-16,0l-17,-2l-16,-2l-17,-1l-17,0l-16,0l-17,1l-16,-1l-17,0l-16,-2l-17,0l-16,0l-17,0l-16,-1l-17,0l-16,0l-17,0l-16,-2l-17,-1l-16,1l-17,2l-16,-2l-17,2l-16,1l-17,0l-16,2l-17,0l-16,1l-17,0l-17,0l-16,2l-17,-2l-16,3l-17,0l-16,1l-17,3l-16,2l-17,1l-16,1l-17,-1l-16,4l-17,5l-16,1l-17,3l-16,4l-17,2l-16,2l-17,0l-16,5l-17,2l-16,0l-17,0l-17,5l-16,1l-17,0l-16,4l-17,3l-16,2l-17,1l-16,3l-17,1l-16,2l-17,3l-16,0l-17,2l-16,3l-17,3l-16,0l-17,2l-16,1l-17,4l-16,2l-17,-3l-16,0l-17,-2l-16,0l-17,2l-17,1l-16,5l-17,1l-16,1l-17,3l-16,3l-17,0l-16,1l-17,2l-16,0l-17,0l-16,-2l-17,2l-16,0l-17,0l-16,1l-17,2l-16,1l-17,2l-16,0l-17,-2l-16,-1l-17,1l-16,2l-17,-2l-17,-1l-16,1l-17,0l-16,0l-17,0l-16,-1l-17,-2l-16,-1l-17,0l-16,-2l-17,-2l-16,-3l-17,-3l-16,-4l-17,-2l-16,-3l-17,-1l-16,-1l-17,-3l-16,-3l-17,0l-16,-3l-17,-4l-17,-2l-16,-2l-17,-3l-16,-3l-17,0l-16,-3l-17,-3l-16,-1l-17,-2l-16,0l-17,-1l-16,-3l-17,-4l-16,-2l-17,-2l-16,-2l-17,-7l-16,-1l-17,-2l-16,-1l-17,-2l-16,0l-17,-1l-16,0l-17,-3l-17,0l-16,-3l-17,0l-16,0l-17,-1l-16,0l-17,-2l-16,0l-17,-4l-16,-1l-17,-2l-16,-1l-17,-2l-16,-1l-17,-1l-16,-2l-17,0l-16,2l-17,1l-16,0l-17,-1l-16,-2l-17,3l-16,-3l-17,0l-17,-3l-16,-1l-17,-4l-16,-2l-17,2l-16,-3l-17,0l-16,0l-17,-2l-16,-4l-17,0l-16,-1l-17,-3l-16,0l-17,3l-16,0l-17,1l-16,0l-17,0l-16,-4l-17,-2l-16,-4l-17,-4l-17,-3l-16,-3l-17,-1l-16,-3l-17,-1l-16,-3l-17,-2l-16,0l-17,2l-16,-2l-17,0l-16,-1l-17,-4l-16,-2l-17,-5l-16,-3l-17,0l-16,0l-17,-3l-16,-2l-17,2l-16,-3l-17,-3l-16,-1l-17,-5l-17,-2l-16,-2l-17,0l-16,0l-17,-1l-16,4l-17,-3l-16,-3l-17,0l-16,0l-17,-2l-16,-2l-17,-1l-16,-3l-17,-2l-16,-1l-17,0l-16,0l-17,3l-16,1l-17,3l-16,-1l-17,-5l-16,-1l-17,-1l-17,-2l-16,-4l-17,-2l-16,0l-17,-1l-16,-1l-17,4l-16,3l-17,3l-16,1l-17,-1l-16,0l-17,1l-16,1l-17,0l-16,2l-17,4l-16,3l-17,3l-16,0l-17,-3l-16,3l-17,1l-17,2l-16,-2l-17,0l-16,-1l-17,4l-16,0l-17,3l-16,1l-17,3l-16,2l-17,4l-16,1l-17,3l-16,2l-17,0l-16,-2l-17,-1l-16,0l-17,4l-16,3l-17,1l-16,4l-17,2l-16,0Z" fill="#ba4545" data-darkreader-inline-fill="" data-darkreader-inline-stroke="" style="--darkreader-inline-fill: #91685e; --darkreader-inline-stroke: none;"></path><path fill-opacity="0.188" stroke="none" d="M767,1608l16,0l17,-2l16,-1l17,1l16,2l17,0l16,0l17,-2l16,-1l17,0l16,-1l17,-2l16,0l17,0l16,-1l17,1l16,2l17,1l16,3l17,-2l16,2l17,-2l16,0l17,-1l17,1l16,0l17,2l16,0l17,-3l16,0l17,0l16,0l17,0l16,0l17,0l16,0l17,0l16,1l17,3l16,0l17,3l16,1l17,2l16,0l17,-2l16,2l17,-2l17,0l16,0l17,-1l16,0l17,0l16,0l17,1l16,2l17,0l16,1l17,0l16,2l17,4l16,1l17,0l16,2l17,1l16,0l17,0l16,2l17,0l16,-2l17,-1l16,1l17,-1l17,0l16,1l17,2l16,1l17,0l16,2l17,2l16,0l17,3l16,0l17,0l16,-1l17,0l16,0l17,1l16,-1l17,1l16,2l17,-2l16,0l17,0l16,-1l17,1l16,-1l17,0l17,1l16,2l17,0l16,0l17,0l16,1l17,1l16,0l17,-1l16,3l17,0l16,0l17,0l16,0l17,-2l16,0l17,0l16,2l17,0l16,-2l17,-2l16,2l17,2l17,-2l16,2l17,0l16,3l17,1l16,-1l17,1l16,2l17,0l16,1l17,1l16,2l17,0l16,1l17,0l16,2l17,1l16,-1l17,1l16,3l17,1l16,2l17,1l16,2l17,1l17,0l16,1l17,2l16,4l17,0l16,0l17,3l16,0l17,1l16,0l17,2l16,1l17,0l16,3l17,2l16,0l17,1l16,0l17,4l16,0l17,2l16,0l17,0l16,1l17,1l17,0l16,0l17,2l16,1l17,2l16,1l17,3l16,3l17,1l16,2l17,3l16,0l17,0l16,1l17,1l16,2l17,3l16,0l17,1l16,0l17,0l16,0l17,0l17,0l16,0l17,-1l16,1l17,1l16,-1l17,1l16,0l17,-1l16,0l17,0l16,0l17,0l16,0l17,0l16,-3l17,0l16,-1l17,-3l16,0l17,1l16,0l17,-1l16,-1l17,-2l17,-1l16,0l17,-2l16,0l17,-1l16,-2l17,-1l16,0l17,1l16,-1l17,0l16,0l17,-1l16,-2l17,0l16,0l17,-3l16,-1l17,0l16,-2l17,0l16,0l17,-4l16,0l17,0l17,0l16,-1l17,-3l16,-1l17,-2l16,-1l17,-2l16,-1l17,0l16,-3l17,0l16,-3l17,0l16,-1l17,0l16,-2l17,-1l16,-2l17,-1l16,0l17,0l16,3l17,0l17,0l16,-2l17,-1l16,0l17,-1l16,1l17,0l16,0l17,-3l16,0l17,0l16,0l17,0l16,0l17,0l16,-1l17,0l16,3l17,-2l16,3l17,0l16,-1l17,-2l16,0l17,-1l17,1l16,-1l17,1l16,0l17,-3l16,-1l17,-3l16,0l17,0l16,0l17,2l16,1l17,-1l16,0l17,1l16,-1l17,0l16,0l17,0l16,-2l17,0l16,0l17,0l16,-3l17,0l17,-3l16,-2l17,0l16,1l17,-1l16,1l17,-1l16,1l17,-3l16,-3l17,2l16,0l17,0l16,-2l17,-1l16,-2l17,-4l16,-1l17,0l16,-2l17,-2l16,0l17,-2l17,0l16,-1l17,0l16,0l17,0l16,-2l17,0l16,-3l17,-1l16,0l17,0l16,-1l17,-3l16,-2l17,-3l16,0l17,0l16,0l17,-1l16,0l17,0l16,-1l17,-2l16,-1l0,-161l-16,0l-17,2l-16,0l-17,0l-16,1l-17,2l-16,0l-17,1l-16,3l-17,3l-16,1l-17,3l-16,3l-17,1l-16,-1l-17,3l-16,2l-17,3l-16,2l-17,3l-16,2l-17,2l-16,0l-17,1l-17,2l-16,0l-17,0l-16,1l-17,0l-16,0l-17,3l-16,3l-17,3l-16,2l-17,0l-16,2l-17,1l-16,3l-17,2l-16,0l-17,1l-16,-1l-17,0l-16,0l-17,1l-16,0l-17,1l-17,-1l-16,-1l-17,0l-16,0l-17,0l-16,1l-17,0l-16,0l-17,0l-16,0l-17,0l-16,-1l-17,1l-16,1l-17,0l-16,2l-17,-2l-16,-1l-17,1l-16,2l-17,1l-16,0l-17,0l-16,-3l-17,0l-17,0l-16,0l-17,0l-16,-2l-17,0l-16,-2l-17,2l-16,0l-17,0l-16,0l-17,0l-16,-2l-17,0l-16,-1l-17,0l-16,1l-17,0l-16,0l-17,2l-16,0l-17,-2l-16,0l-17,3l-16,1l-17,0l-17,0l-16,-1l-17,0l-16,0l-17,0l-16,1l-17,2l-16,1l-17,6l-16,1l-17,0l-16,3l-17,3l-16,1l-17,3l-16,2l-17,1l-16,3l-17,1l-16,5l-17,1l-16,1l-17,0l-17,2l-16,0l-17,1l-16,3l-17,2l-16,1l-17,3l-16,3l-17,3l-16,0l-17,2l-16,2l-17,1l-16,0l-17,3l-16,1l-17,-1l-16,1l-17,3l-16,2l-17,-2l-16,2l-17,0l-16,0l-17,1l-17,2l-16,1l-17,1l-16,2l-17,0l-16,3l-17,1l-16,3l-17,1l-16,-1l-17,0l-16,0l-17,0l-16,-1l-17,-3l-16,0l-17,3l-16,0l-17,1l-16,1l-17,-2l-16,-2l-17,0l-16,2l-17,0l-17,-2l-16,0l-17,-3l-16,3l-17,0l-16,0l-17,-1l-16,-2l-17,-3l-16,0l-17,-1l-16,-4l-17,-2l-16,-3l-17,-1l-16,-1l-17,-2l-16,-1l-17,-3l-16,-3l-17,3l-16,0l-17,-3l-17,-1l-16,-2l-17,-1l-16,0l-17,0l-16,-4l-17,-3l-16,-2l-17,0l-16,-1l-17,0l-16,-3l-17,-3l-16,-3l-17,-2l-16,0l-17,-5l-16,-3l-17,0l-16,0l-17,-1l-16,0l-17,-3l-16,-3l-17,-1l-17,-2l-16,-1l-17,-1l-16,-3l-17,-2l-16,-2l-17,-2l-16,-1l-17,-3l-16,0l-17,-2l-16,0l-17,0l-16,-1l-17,0l-16,-1l-17,-2l-16,0l-17,2l-16,-2l-17,0l-16,-1l-17,0l-16,-2l-17,-3l-17,-2l-16,-2l-17,-3l-16,2l-17,1l-16,-1l-17,0l-16,-2l-17,-1l-16,-1l-17,0l-16,-2l-17,-1l-16,-2l-17,2l-16,-2l-17,0l-16,-1l-17,0l-16,-2l-17,-2l-16,-2l-17,0l-17,-4l-16,0l-17,-2l-16,-1l-17,-3l-16,-1l-17,0l-16,0l-17,0l-16,0l-17,0l-16,-3l-17,-3l-16,0l-17,-3l-16,-1l-17,0l-16,0l-17,-3l-16,1l-17,2l-16,-2l-17,-1l-16,-1l-17,-2l-17,-1l-16,-3l-17,0l-16,0l-17,-2l-16,-2l-17,1l-16,-1l-17,-2l-16,0l-17,0l-16,0l-17,-1l-16,-2l-17,0l-16,-1l-17,-1l-16,0l-17,0l-16,0l-17,1l-16,0l-17,-1l-16,0l-17,-2l-17,-1l-16,-5l-17,-1l-16,0l-17,-1l-16,-2l-17,0l-16,3l-17,0l-16,-1l-17,0l-16,1l-17,0l-16,0l-17,1l-16,2l-17,1l-16,2l-17,1l-16,0l-17,2l-16,1l-17,1l-17,2l-16,-2l-17,0l-16,0l-17,0l-16,0l-17,2l-16,0l-17,1l-16,2l-17,2l-16,2l-17,0l-16,1l-17,0l-16,-1l-17,-2l-16,3l-17,3l-16,0l-17,0l-16,4l-17,0l-16,2Z" fill="#ba4545" data-darkreader-inline-fill="" data-darkreader-inline-stroke="" style="--darkreader-inline-fill: #91685e; --darkreader-inline-stroke: none;"></path><g clip-path="url(#plot-sample-bounds-scaled-2)"><path stroke-width="20" stroke="#ba4545" d="M767,1525l16,0l17,-1l16,-1l17,0l16,-2l17,-1l16,-2l17,0l16,0l17,0l16,-1l17,0l16,-2l17,-1l16,-1l17,0l16,0l17,0l16,1l17,0l16,0l17,0l16,-1l17,0l17,0l16,-2l17,2l16,0l17,-2l16,-1l17,-2l16,0l17,-1l16,0l17,0l16,0l17,0l16,1l17,0l16,0l17,0l16,0l17,2l16,1l17,0l16,2l17,1l17,0l16,1l17,0l16,0l17,0l16,0l17,0l16,2l17,0l16,1l17,0l16,2l17,1l16,3l17,0l16,1l17,0l16,2l17,0l16,0l17,1l16,0l17,0l16,3l17,0l17,2l16,1l17,1l16,3l17,0l16,0l17,2l16,0l17,1l16,1l17,2l16,0l17,3l16,0l17,1l16,0l17,2l16,1l17,0l16,1l17,0l16,0l17,2l16,0l17,1l17,2l16,1l17,2l16,1l17,0l16,1l17,0l16,0l17,-1l16,1l17,2l16,1l17,0l16,2l17,0l16,0l17,0l16,1l17,-1l16,0l17,-2l16,2l17,1l17,1l16,2l17,0l16,1l17,2l16,0l17,0l16,0l17,0l16,1l17,2l16,1l17,0l16,0l17,1l16,0l17,3l16,0l17,0l16,3l17,2l16,1l17,1l16,0l17,2l17,0l16,3l17,1l16,3l17,0l16,0l17,0l16,1l17,3l16,0l17,2l16,2l17,2l16,3l17,1l16,1l17,0l16,2l17,3l16,3l17,0l16,0l17,1l16,1l17,2l17,3l16,0l17,0l16,0l17,3l16,1l17,1l16,3l17,2l16,1l17,3l16,1l17,2l16,1l17,2l16,1l17,3l16,0l17,0l16,0l17,0l16,0l17,0l17,0l16,-2l17,0l16,0l17,2l16,0l17,0l16,-2l17,-1l16,0l17,1l16,0l17,0l16,2l17,-2l16,0l17,-1l16,-1l17,-2l16,-1l17,0l16,0l17,-2l16,-3l17,-1l17,-1l16,0l17,-2l16,0l17,0l16,0l17,-3l16,0l17,0l16,0l17,-1l16,0l17,-1l16,-2l17,0l16,-1l17,-3l16,-2l17,-1l16,0l17,-1l16,-2l17,-1l16,0l17,-2l17,0l16,-3l17,-1l16,-3l17,-1l16,-2l17,-1l16,-1l17,-2l16,-1l17,-3l16,-2l17,0l16,-1l17,-3l16,-1l17,-2l16,-1l17,-1l16,0l17,0l16,2l17,0l17,0l16,-1l17,-1l16,0l17,-2l16,2l17,-2l16,0l17,-1l16,1l17,0l16,0l17,0l16,2l17,0l16,-2l17,2l16,0l17,0l16,1l17,0l16,0l17,0l16,0l17,0l17,0l16,0l17,1l16,-1l17,-1l16,-2l17,-1l16,0l17,0l16,0l17,0l16,0l17,-2l16,0l17,0l16,-1l17,0l16,0l17,0l16,-2l17,0l16,0l17,0l16,-1l17,0l17,-1l16,0l17,-2l16,2l17,-2l16,2l17,-2l16,2l17,-2l16,-1l17,-2l16,0l17,0l16,-1l17,-2l16,-1l17,-3l16,-1l17,0l16,-2l17,-1l16,1l17,-1l17,-1l16,0l17,0l16,-2l17,-1l16,-2l17,-1l16,-3l17,-3l16,2l17,-2l16,-3l17,-3l16,-1l17,-3l16,-1l17,-2l16,-1l17,0l16,-1l17,0l16,-3l17,-2l16,-1" fill="none" stroke-opacity="0.3764705882352941" data-darkreader-inline-stroke="" style="--darkreader-inline-stroke: #c7988a;"></path></g><path fill-opacity="0.251" stroke="none" d="M758,1360l9,0l0,909l-9,0ZM767,1269l16,0l0,1182l-16,0ZM783,1269l17,0l0,1182l-17,0ZM800,1360l16,0l0,1273l-16,0ZM816,1269l17,0l0,1091l-17,0ZM833,1269l16,0l0,1182l-16,0ZM849,1360l17,0l0,1364l-17,0ZM866,997l16,0l0,2000l-16,0ZM882,1451l17,0l0,818l-17,0ZM899,1633l16,0l0,909l-16,0ZM915,1542l17,0l0,727l-17,0ZM932,1633l16,0l0,727l-16,0ZM948,1724l17,0l0,636l-17,0ZM965,1633l16,0l0,818l-16,0ZM981,1451l17,0l0,1000l-17,0ZM998,1360l16,0l0,1273l-16,0ZM1014,1360l17,0l0,1273l-17,0ZM1031,1451l16,0l0,1091l-16,0ZM1047,1451l17,0l0,1273l-17,0ZM1064,1451l16,0l0,909l-16,0ZM1080,1360l17,0l0,1091l-17,0ZM1097,1360l16,0l0,1091l-16,0ZM1113,1360l17,0l0,909l-17,0ZM1130,1451l16,0l0,1091l-16,0ZM1146,1451l17,0l0,1000l-17,0ZM1163,1360l17,0l0,1000l-17,0ZM1180,1360l16,0l0,1000l-16,0ZM1196,1360l17,0l0,1091l-17,0ZM1213,1451l16,0l0,1364l-16,0ZM1229,1451l17,0l0,1364l-17,0ZM1246,1360l16,0l0,1546l-16,0ZM1262,1451l17,0l0,1364l-17,0ZM1279,1542l16,0l0,909l-16,0ZM1295,1360l17,0l0,1455l-17,0ZM1312,1360l16,0l0,1364l-16,0ZM1328,1542l17,0l0,727l-17,0ZM1345,1542l16,0l0,727l-16,0ZM1361,1724l17,0l0,545l-17,0ZM1378,1815l16,0l0,636l-16,0ZM1394,1542l17,0l0,1000l-17,0ZM1411,1451l16,0l0,1091l-16,0ZM1427,1451l17,0l0,1000l-17,0ZM1444,1360l16,0l0,909l-16,0ZM1460,1451l17,0l0,727l-17,0ZM1477,1451l16,0l0,909l-16,0ZM1493,1451l17,0l0,1000l-17,0ZM1510,1451l16,0l0,818l-16,0ZM1526,1451l17,0l0,727l-17,0ZM1543,1542l17,0l0,818l-17,0ZM1560,1724l16,0l0,545l-16,0ZM1576,1451l17,0l0,909l-17,0ZM1593,1542l16,0l0,818l-16,0ZM1609,1360l17,0l0,1273l-17,0ZM1626,1360l16,0l0,909l-16,0ZM1642,1451l17,0l0,818l-17,0ZM1659,1633l16,0l0,636l-16,0ZM1675,1633l17,0l0,636l-17,0ZM1692,1633l16,0l0,545l-16,0ZM1708,1906l17,0l0,272l-17,0ZM1725,1633l16,0l0,545l-16,0ZM1741,1633l17,0l0,545l-17,0ZM1758,1451l16,0l0,727l-16,0ZM1774,1633l17,0l0,818l-17,0ZM1791,1633l16,0l0,545l-16,0ZM1807,1724l17,0l0,545l-17,0ZM1824,1724l16,0l0,454l-16,0ZM1840,1633l17,0l0,1000l-17,0ZM1857,1451l16,0l0,1455l-16,0ZM1873,1451l17,0l0,1091l-17,0ZM1890,1633l16,0l0,909l-16,0ZM1906,1451l17,0l0,909l-17,0ZM1923,1633l16,0l0,727l-16,0ZM1939,1451l17,0l0,1000l-17,0ZM1956,1542l17,0l0,1000l-17,0ZM1973,1542l16,0l0,727l-16,0ZM1989,1451l17,0l0,1000l-17,0ZM2006,1451l16,0l0,1000l-16,0ZM2022,1360l17,0l0,1182l-17,0ZM2039,1269l16,0l0,1091l-16,0ZM2055,1451l17,0l0,727l-17,0ZM2072,1451l16,0l0,818l-16,0ZM2088,1451l17,0l0,1000l-17,0ZM2105,1451l16,0l0,818l-16,0ZM2121,1451l17,0l0,909l-17,0ZM2138,1451l16,0l0,818l-16,0ZM2154,1542l17,0l0,636l-17,0ZM2171,1633l16,0l0,727l-16,0ZM2187,1542l17,0l0,727l-17,0ZM2204,1451l16,0l0,818l-16,0ZM2220,1633l17,0l0,636l-17,0ZM2237,1360l16,0l0,1091l-16,0ZM2253,1633l17,0l0,545l-17,0ZM2270,1451l16,0l0,1182l-16,0ZM2286,1360l17,0l0,909l-17,0ZM2303,1360l16,0l0,909l-16,0ZM2319,1451l17,0l0,727l-17,0ZM2336,1542l16,0l0,727l-16,0ZM2352,1542l17,0l0,909l-17,0ZM2369,1451l17,0l0,818l-17,0ZM2386,1542l16,0l0,909l-16,0ZM2402,1451l17,0l0,727l-17,0ZM2419,1542l16,0l0,636l-16,0ZM2435,1633l17,0l0,909l-17,0ZM2452,1451l16,0l0,1364l-16,0ZM2468,1451l17,0l0,909l-17,0ZM2485,1360l16,0l0,1091l-16,0ZM2501,1633l17,0l0,636l-17,0ZM2518,1633l16,0l0,636l-16,0ZM2534,1815l17,0l0,454l-17,0ZM2551,1815l16,0l0,454l-16,0ZM2567,1633l17,0l0,636l-17,0ZM2584,1633l16,0l0,636l-16,0ZM2600,1451l17,0l0,818l-17,0ZM2617,1542l16,0l0,818l-16,0ZM2633,1724l17,0l0,545l-17,0ZM2650,1542l16,0l0,1091l-16,0ZM2666,1633l17,0l0,636l-17,0ZM2683,1633l16,0l0,636l-16,0ZM2699,1633l17,0l0,727l-17,0ZM2716,1815l16,0l0,636l-16,0ZM2732,1360l17,0l0,1182l-17,0ZM2749,1542l17,0l0,818l-17,0ZM2766,1269l16,0l0,1273l-16,0ZM2782,1360l17,0l0,1091l-17,0ZM2799,1906l16,0l0,454l-16,0ZM2815,906l17,0l0,1363l-17,0ZM2832,1906l16,0l0,272l-16,0ZM2848,1451l17,0l0,818l-17,0ZM2865,1542l16,0l0,818l-16,0ZM2881,1451l17,0l0,818l-17,0ZM2898,1451l16,0l0,727l-16,0ZM2914,1451l17,0l0,727l-17,0ZM2931,1542l16,0l0,636l-16,0ZM2947,1633l17,0l0,545l-17,0ZM2964,1360l16,0l0,909l-16,0ZM2980,1542l17,0l0,727l-17,0ZM2997,1542l16,0l0,636l-16,0ZM3013,1906l17,0l0,363l-17,0ZM3030,1633l16,0l0,636l-16,0ZM3046,1724l17,0l0,636l-17,0ZM3063,1451l16,0l0,818l-16,0ZM3079,1360l17,0l0,1091l-17,0ZM3096,1360l16,0l0,1182l-16,0ZM3112,1633l17,0l0,636l-17,0ZM3129,1633l16,0l0,636l-16,0ZM3145,1724l17,0l0,545l-17,0ZM3162,997l17,0l0,1272l-17,0ZM3179,1542l16,0l0,818l-16,0ZM3195,1724l17,0l0,636l-17,0ZM3212,1633l16,0l0,636l-16,0ZM3228,1542l17,0l0,909l-17,0ZM3245,1542l16,0l0,818l-16,0ZM3261,815l17,0l0,1727l-17,0ZM3278,1724l16,0l0,545l-16,0ZM3294,1724l17,0l0,545l-17,0ZM3311,1633l16,0l0,727l-16,0ZM3327,1542l17,0l0,636l-17,0ZM3344,1724l16,0l0,545l-16,0ZM3360,1633l17,0l0,909l-17,0ZM3377,1724l16,0l0,636l-16,0ZM3393,1451l17,0l0,1091l-17,0ZM3410,1724l16,0l0,545l-16,0ZM3426,1724l17,0l0,545l-17,0ZM3443,1815l16,0l0,545l-16,0ZM3459,1724l17,0l0,727l-17,0ZM3476,1633l16,0l0,909l-16,0ZM3492,1633l17,0l0,818l-17,0ZM3509,1724l16,0l0,636l-16,0ZM3525,1542l17,0l0,1091l-17,0ZM3542,1633l16,0l0,909l-16,0ZM3558,1724l17,0l0,636l-17,0ZM3575,1269l17,0l0,1000l-17,0ZM3592,1451l16,0l0,909l-16,0ZM3608,1815l17,0l0,727l-17,0ZM3625,1815l16,0l0,727l-16,0ZM3641,1633l17,0l0,818l-17,0ZM3658,1906l16,0l0,545l-16,0ZM3674,1633l17,0l0,818l-17,0ZM3691,1451l16,0l0,1091l-16,0ZM3707,1815l17,0l0,636l-17,0ZM3724,1633l16,0l0,727l-16,0ZM3740,1360l17,0l0,1091l-17,0ZM3757,1542l16,0l0,818l-16,0ZM3773,1542l17,0l0,727l-17,0ZM3790,1724l16,0l0,636l-16,0ZM3806,1542l17,0l0,909l-17,0ZM3823,1451l16,0l0,909l-16,0ZM3839,1542l17,0l0,1273l-17,0ZM3856,1269l16,0l0,1091l-16,0ZM3872,1542l17,0l0,727l-17,0ZM3889,1542l16,0l0,727l-16,0ZM3905,1906l17,0l0,363l-17,0ZM3922,1542l16,0l0,818l-16,0ZM3938,1542l17,0l0,818l-17,0ZM3955,1360l17,0l0,1273l-17,0ZM3972,1542l16,0l0,818l-16,0ZM3988,1451l17,0l0,1091l-17,0ZM4005,1633l16,0l0,727l-16,0ZM4021,1633l17,0l0,727l-17,0ZM4038,1542l16,0l0,909l-16,0ZM4054,1724l17,0l0,636l-17,0ZM4071,1724l16,0l0,636l-16,0ZM4087,1451l17,0l0,1273l-17,0ZM4104,1542l16,0l0,1000l-16,0ZM4120,1542l17,0l0,818l-17,0ZM4137,1633l16,0l0,636l-16,0ZM4153,1633l17,0l0,727l-17,0ZM4170,1542l16,0l0,909l-16,0ZM4186,1724l17,0l0,636l-17,0ZM4203,1542l16,0l0,909l-16,0ZM4219,1451l17,0l0,1091l-17,0ZM4236,1633l16,0l0,636l-16,0ZM4252,1360l17,0l0,909l-17,0ZM4269,1724l16,0l0,454l-16,0ZM4285,1451l17,0l0,1000l-17,0ZM4302,1542l16,0l0,818l-16,0ZM4318,1542l17,0l0,909l-17,0ZM4335,1724l16,0l0,545l-16,0ZM4351,1542l17,0l0,727l-17,0ZM4368,1451l17,0l0,1455l-17,0ZM4385,1815l16,0l0,545l-16,0ZM4401,1724l17,0l0,545l-17,0ZM4418,1633l16,0l0,909l-16,0ZM4434,1633l17,0l0,909l-17,0ZM4451,1815l16,0l0,454l-16,0ZM4467,1542l17,0l0,818l-17,0ZM4484,1633l16,0l0,818l-16,0ZM4500,1542l17,0l0,1182l-17,0ZM4517,997l16,0l0,1454l-16,0ZM4533,1269l17,0l0,1364l-17,0ZM4550,1360l16,0l0,1273l-16,0ZM4566,1724l17,0l0,727l-17,0ZM4583,1542l16,0l0,909l-16,0ZM4599,1724l17,0l0,545l-17,0ZM4616,1542l16,0l0,1000l-16,0ZM4632,1633l17,0l0,909l-17,0ZM4649,1633l16,0l0,727l-16,0ZM4665,1633l17,0l0,909l-17,0ZM4682,1542l16,0l0,1091l-16,0ZM4698,1542l17,0l0,909l-17,0ZM4715,1815l16,0l0,545l-16,0ZM4731,1542l17,0l0,1000l-17,0ZM4748,1633l16,0l0,636l-16,0ZM4764,542l17,0l0,1818l-17,0ZM4781,1724l17,0l0,545l-17,0ZM4798,1542l16,0l0,909l-16,0ZM4814,1815l17,0l0,545l-17,0ZM4831,1633l16,0l0,909l-16,0ZM4847,1633l17,0l0,636l-17,0ZM4864,1360l16,0l0,1091l-16,0ZM4880,1451l17,0l0,1091l-17,0ZM4897,1633l16,0l0,1000l-16,0ZM4913,1633l17,0l0,909l-17,0ZM4930,1542l16,0l0,1000l-16,0ZM4946,1542l17,0l0,1273l-17,0ZM4963,1542l16,0l0,1000l-16,0ZM4979,1542l17,0l0,909l-17,0ZM4996,1360l16,0l0,1091l-16,0ZM5012,1815l17,0l0,727l-17,0ZM5029,1542l16,0l0,1091l-16,0ZM5045,1633l17,0l0,1091l-17,0ZM5062,1633l16,0l0,1182l-16,0ZM5078,1633l17,0l0,636l-17,0ZM5095,1724l16,0l0,818l-16,0ZM5111,1451l17,0l0,909l-17,0ZM5128,1542l16,0l0,1000l-16,0ZM5144,1451l17,0l0,1000l-17,0ZM5161,1542l17,0l0,1000l-17,0ZM5178,1360l16,0l0,1455l-16,0ZM5194,1360l17,0l0,1273l-17,0ZM5211,1633l16,0l0,909l-16,0ZM5227,1542l17,0l0,727l-17,0ZM5244,1633l16,0l0,636l-16,0ZM5260,1633l17,0l0,727l-17,0ZM5277,1542l16,0l0,818l-16,0ZM5293,1451l17,0l0,909l-17,0ZM5310,1451l16,0l0,1182l-16,0ZM5326,1542l17,0l0,1000l-17,0ZM5343,1542l16,0l0,727l-16,0ZM5359,1633l17,0l0,727l-17,0ZM5376,1633l16,0l0,727l-16,0ZM5392,1542l17,0l0,727l-17,0ZM5409,1542l16,0l0,1000l-16,0ZM5425,1633l17,0l0,909l-17,0ZM5442,1724l16,0l0,1000l-16,0ZM5458,1451l17,0l0,1091l-17,0ZM5475,1451l16,0l0,1091l-16,0ZM5491,1451l17,0l0,909l-17,0ZM5508,1360l16,0l0,1182l-16,0ZM5524,1451l17,0l0,1000l-17,0ZM5541,1451l16,0l0,909l-16,0ZM5557,1542l17,0l0,818l-17,0ZM5574,1633l17,0l0,636l-17,0ZM5591,1542l16,0l0,818l-16,0ZM5607,1451l17,0l0,818l-17,0ZM5624,1542l16,0l0,727l-16,0ZM5640,1451l17,0l0,818l-17,0ZM5657,1451l16,0l0,909l-16,0ZM5673,1542l17,0l0,636l-17,0ZM5690,1542l16,0l0,636l-16,0ZM5706,1542l17,0l0,636l-17,0ZM5723,1633l16,0l0,545l-16,0ZM5739,1542l17,0l0,727l-17,0ZM5756,1451l16,0l0,1182l-16,0ZM5772,1360l17,0l0,1000l-17,0ZM5789,1815l16,0l0,545l-16,0ZM5805,1451l17,0l0,1000l-17,0ZM5822,1633l16,0l0,727l-16,0ZM5838,1542l17,0l0,818l-17,0ZM5855,1542l16,0l0,818l-16,0ZM5871,1451l17,0l0,818l-17,0ZM5888,1451l16,0l0,818l-16,0ZM5904,1633l17,0l0,818l-17,0ZM5921,1724l16,0l0,636l-16,0ZM5937,1633l17,0l0,727l-17,0ZM5954,1542l16,0l0,818l-16,0ZM5970,1451l17,0l0,909l-17,0ZM5987,1542l17,0l0,636l-17,0ZM6004,1360l16,0l0,909l-16,0ZM6020,1633l17,0l0,818l-17,0ZM6037,815l16,0l0,1545l-16,0ZM6053,1815l17,0l0,454l-17,0ZM6070,1542l16,0l0,727l-16,0ZM6086,1542l17,0l0,818l-17,0ZM6103,1542l16,0l0,636l-16,0ZM6119,1542l17,0l0,818l-17,0ZM6136,1542l16,0l0,1091l-16,0ZM6152,1542l17,0l0,1000l-17,0ZM6169,1633l16,0l0,818l-16,0ZM6185,1542l17,0l0,818l-17,0ZM6202,1724l16,0l0,545l-16,0ZM6218,1542l17,0l0,727l-17,0ZM6235,1633l16,0l0,636l-16,0ZM6251,1633l17,0l0,727l-17,0ZM6268,1542l16,0l0,818l-16,0ZM6284,1542l17,0l0,1000l-17,0ZM6301,1633l16,0l0,818l-16,0ZM6317,1633l17,0l0,818l-17,0ZM6334,1633l16,0l0,909l-16,0ZM6350,1633l17,0l0,909l-17,0ZM6367,1815l17,0l0,454l-17,0ZM6384,1633l16,0l0,727l-16,0ZM6400,1451l17,0l0,909l-17,0ZM6417,1542l16,0l0,1273l-16,0ZM6433,1451l17,0l0,1000l-17,0ZM6450,1542l16,0l0,1273l-16,0ZM6466,1542l17,0l0,1091l-17,0ZM6483,1633l16,0l0,909l-16,0ZM6499,1451l17,0l0,1091l-17,0ZM6516,1360l16,0l0,1637l-16,0ZM6532,1360l17,0l0,1546l-17,0ZM6549,1451l16,0l0,1273l-16,0ZM6565,1451l17,0l0,1182l-17,0ZM6582,1269l16,0l0,1546l-16,0ZM6598,1451l17,0l0,1364l-17,0ZM6615,1360l16,0l0,1182l-16,0ZM6631,1360l17,0l0,1273l-17,0ZM6648,1269l16,0l0,1455l-16,0ZM6664,1360l17,0l0,1091l-17,0ZM6681,1360l16,0l0,1182l-16,0ZM6697,1451l17,0l0,1455l-17,0ZM6714,1542l16,0l0,1364l-16,0ZM6730,1542l17,0l0,818l-17,0ZM6747,1451l16,0l0,1273l-16,0ZM6763,1633l9,0l0,727l-9,0Z" fill="#000" data-darkreader-inline-fill="" data-darkreader-inline-stroke="" style="--darkreader-inline-fill: #070706; --darkreader-inline-stroke: none;"></path><path stroke-width="10" stroke="#4646b9" d="M758,2487l13,0M771,2505l17,0M788,2632l16,0" fill="none" stroke-opacity="1.0" data-darkreader-inline-stroke="" style="--darkreader-inline-stroke: #c3c6ca;"></path><line stroke-width="10" stroke="#000" x2="6780" y1="3269.5" x1="750" fill="none" y2="3269.5" stroke-opacity="0.25098039215686274" data-darkreader-inline-stroke="" style="--darkreader-inline-stroke: #c7baa5;"></line></g><g stroke-width="1" stroke="#000" fill="none" stroke-opacity="0.072" data-darkreader-inline-stroke="" style="--darkreader-inline-stroke: #ffffff;"><line x2="126.2" y1="10" x1="126.2" y2="350" stroke-opacity="0.12"></line><line x2="172.5" y1="10" x1="172.5" y2="350" stroke-opacity="0.12"></line><line x2="223.7" y1="10" x1="223.7" y2="350" stroke-opacity="0.12"></line><line x2="273.2" y1="10" x1="273.2" y2="350" stroke-opacity="0.12"></line><line x2="324.5" y1="10" x1="324.5" y2="350" stroke-opacity="0.12"></line><line x2="374" y1="10" x1="374" y2="350" stroke-opacity="0.12"></line><line x2="425.2" y1="10" x1="425.2" y2="350" stroke-opacity="0.12"></line><line x2="476.4" y1="10" x1="476.4" y2="350" stroke-opacity="0.12"></line><line x2="526" y1="10" x1="526" y2="350" stroke-opacity="0.12"></line><line x2="577.2" y1="10" x1="577.2" y2="350" stroke-opacity="0.12"></line><line x2="626.8" y1="10" x1="626.8" y2="350" stroke-opacity="0.12"></line><line x2="681" y1="326.9" x1="72" y2="326.9"></line><line x2="681" y1="281.4" x1="72" y2="281.4"></line><line x2="681" y1="235.9" x1="72" y2="235.9"></line><line x2="681" y1="190.5" x1="72" y2="190.5"></line><line x2="681" y1="145" x1="72" y2="145"></line><line x2="681" y1="99.6" x1="72" y2="99.6"></line><line x2="681" y1="54.1" x1="72" y2="54.1"></line></g><g><rect fill-opacity="0.004" y="10" x="75" height="335" width="51.2" fill="#fff" data-darkreader-inline-fill="" style="--darkreader-inline-fill: #2b2a27;"></rect><text stroke="none" y="361.5" text-anchor="middle" x="100.6" data-darkreader-inline-stroke="" style="--darkreader-inline-stroke: none;">ene.</text></g><g><rect fill-opacity="0.004" y="10" x="126.2" height="335" width="46.3" fill="#fff" data-darkreader-inline-fill="" style="--darkreader-inline-fill: #2b2a27;"></rect><text stroke="none" y="361.5" text-anchor="middle" x="149.3" data-darkreader-inline-stroke="" style="--darkreader-inline-stroke: none;">feb.</text></g><g><rect fill-opacity="0.004" y="10" x="172.5" height="335" width="51.2" fill="#fff" data-darkreader-inline-fill="" style="--darkreader-inline-fill: #2b2a27;"></rect><text stroke="none" y="361.5" text-anchor="middle" x="198.1" data-darkreader-inline-stroke="" style="--darkreader-inline-stroke: none;">mar.</text></g><g><rect fill-opacity="0.004" y="10" x="223.7" height="335" width="49.6" fill="#fff" data-darkreader-inline-fill="" style="--darkreader-inline-fill: #2b2a27;"></rect><text stroke="none" y="361.5" text-anchor="middle" x="248.5" data-darkreader-inline-stroke="" style="--darkreader-inline-stroke: none;">abr.</text></g><g><rect fill-opacity="0.004" y="10" x="273.2" height="335" width="51.2" fill="#fff" data-darkreader-inline-fill="" style="--darkreader-inline-fill: #2b2a27;"></rect><text stroke="none" y="361.5" text-anchor="middle" x="298.9" data-darkreader-inline-stroke="" style="--darkreader-inline-stroke: none;">may.</text></g><g><rect fill-opacity="0.004" y="10" x="324.5" height="335" width="49.6" fill="#fff" data-darkreader-inline-fill="" style="--darkreader-inline-fill: #2b2a27;"></rect><text stroke="none" y="361.5" text-anchor="middle" x="349.2" data-darkreader-inline-stroke="" style="--darkreader-inline-stroke: none;">jun.</text></g><g><rect fill-opacity="0.004" y="10" x="374" height="335" width="51.2" fill="#fff" data-darkreader-inline-fill="" style="--darkreader-inline-fill: #2b2a27;"></rect><text stroke="none" y="361.5" text-anchor="middle" x="399.6" data-darkreader-inline-stroke="" style="--darkreader-inline-stroke: none;">jul.</text></g><g><rect fill-opacity="0.004" y="10" x="425.2" height="335" width="51.2" fill="#fff" data-darkreader-inline-fill="" style="--darkreader-inline-fill: #2b2a27;"></rect><text stroke="none" y="361.5" text-anchor="middle" x="450.8" data-darkreader-inline-stroke="" style="--darkreader-inline-stroke: none;">ago.</text></g><g><rect fill-opacity="0.004" y="10" x="476.4" height="335" width="49.6" fill="#fff" data-darkreader-inline-fill="" style="--darkreader-inline-fill: #2b2a27;"></rect><text stroke="none" y="361.5" text-anchor="middle" x="501.2" data-darkreader-inline-stroke="" style="--darkreader-inline-stroke: none;">sept.</text></g><g><rect fill-opacity="0.004" y="10" x="526" height="335" width="51.2" fill="#fff" data-darkreader-inline-fill="" style="--darkreader-inline-fill: #2b2a27;"></rect><text stroke="none" y="361.5" text-anchor="middle" x="551.6" data-darkreader-inline-stroke="" style="--darkreader-inline-stroke: none;">oct.</text></g><g><rect fill-opacity="0.004" y="10" x="577.2" height="335" width="49.6" fill="#fff" data-darkreader-inline-fill="" style="--darkreader-inline-fill: #2b2a27;"></rect><text stroke="none" y="361.5" text-anchor="middle" x="602" data-darkreader-inline-stroke="" style="--darkreader-inline-stroke: none;">nov.</text></g><g><rect fill-opacity="0.004" y="10" x="626.8" height="335" width="51.2" fill="#fff" data-darkreader-inline-fill="" style="--darkreader-inline-fill: #2b2a27;"></rect><text stroke="none" y="361.5" text-anchor="middle" x="652.4" data-darkreader-inline-stroke="" style="--darkreader-inline-stroke: none;">dic.</text></g><g stroke="none" fill="#666" data-darkreader-inline-fill="" data-darkreader-inline-stroke="" style="--darkreader-inline-fill: #7b786e; --darkreader-inline-stroke: none;"><text y="332" text-anchor="end" x="71">0 °C</text><text y="332" x="682">0 °C</text><text y="286.6" text-anchor="end" x="71">5 °C</text><text y="286.6" x="682">5 °C</text><text y="241.1" text-anchor="end" x="71">10 °C</text><text y="241.1" x="682">10 °C</text><text y="195.7" text-anchor="end" x="71">15 °C</text><text y="195.7" x="682">15 °C</text><text y="150.2" text-anchor="end" x="71">20 °C</text><text y="150.2" x="682">20 °C</text><text y="104.7" text-anchor="end" x="71">25 °C</text><text y="104.7" x="682">25 °C</text><text y="59.3" text-anchor="end" x="71">30 °C</text><text y="59.3" x="682">30 °C</text></g><rect fill-opacity="0.000" stroke="none" y="5" x="75.8" height="5" width="24" fill="#fff" data-darkreader-inline-fill="" data-darkreader-inline-stroke="" style="--darkreader-inline-fill: #ffffff; --darkreader-inline-stroke: none;"></rect><g><rect fill-opacity="0.004" stroke="none" y="10" x="75.8" height="335" width="24" fill="#fff" data-darkreader-inline-fill="" data-darkreader-inline-stroke="" style="--darkreader-inline-fill: #2b2a27; --darkreader-inline-stroke: none;"></rect><path stroke-width="5" stroke="#000" d="M95.3,192.5L80.3,177.5L95.3,162.5" stroke-linecap="round" stroke-linejoin="round" fill="none" stroke-opacity="0.3" data-darkreader-inline-stroke="" style="--darkreader-inline-stroke: #ffffff;"></path><path stroke-width="3" stroke="#fff" d="M95.3,192.5L80.3,177.5L95.3,162.5" stroke-linecap="round" stroke-linejoin="round" fill="none" stroke-opacity="0.6" data-darkreader-inline-stroke="" style="--darkreader-inline-stroke: #ffffff;"></path></g><rect fill-opacity="0.000" stroke="none" y="5" x="653.2" height="5" width="24" fill="#fff" data-darkreader-inline-fill="" data-darkreader-inline-stroke="" style="--darkreader-inline-fill: #ffffff; --darkreader-inline-stroke: none;"></rect><g><rect fill-opacity="0.004" stroke="none" y="10" x="653.2" height="335" width="24" fill="#fff" data-darkreader-inline-fill="" data-darkreader-inline-stroke="" style="--darkreader-inline-fill: #2b2a27; --darkreader-inline-stroke: none;"></rect><path stroke-width="5" stroke="#000" d="M657.7,192.5L672.7,177.5L657.7,162.5" stroke-linecap="round" stroke-linejoin="round" fill="none" stroke-opacity="0.3" data-darkreader-inline-stroke="" style="--darkreader-inline-stroke: #ffffff;"></path><path stroke-width="3" stroke="#fff" d="M657.7,192.5L672.7,177.5L657.7,162.5" stroke-linecap="round" stroke-linejoin="round" fill="none" stroke-opacity="0.6" data-darkreader-inline-stroke="" style="--darkreader-inline-stroke: #ffffff;"></path></g></svg>